# xmcd
#
# Track frame offsets: 
#        150
#        30875
#        59200
#        91150
#        117502
#        141170
#        170335
#        195925
#        223122
#
# Disc length: 3261 seconds
#
# Revision: 3
# Processed by: cddbd v1.5.2PL0 Copyright (c) Steve Scherf et al.
# Submitted via: ExactAudioCopy v1.0b3
#
DISCID=7b0cbb09
DTITLE=Bob James and David Sanborn - Double Vision
DYEAR=1986
DGENRE=Jazz
TTITLE0=Maputo
TTITLE1=More Than Friends
TTITLE2=Moon Tune
TTITLE3=Bob James and David Sanborn feat. Al Jarreau - Since I Fell For 
TTITLE3=You
TTITLE4=It's You
TTITLE5=Never Enough
TTITLE6=You Don't Know Me
TTITLE7=Luthor (Session Outtake)
TTITLE8=Hey, Girl (Session Outtake)
EXTD=YEAR: 1986
EXTT0=
EXTT1=
EXTT2=
EXTT3=
EXTT4=
EXTT5=
EXTT6=
EXTT7=
EXTT8=
PLAYORDER=
